<mxfile host="drawio-plugin" modified="2022-12-10T01:16:57.018Z" agent="5.0 (Windows NT 6.2; Win64; x64) AppleWebKit/537.36 (KHTML, like Gecko) Chrome/98.0.4758.102 Safari/537.36" etag="2fJU3Kz9EIfoI8ipXebX" version="15.5.4" type="embed"><diagram id="23iRSUPoRavnBvh4doch" name="Page-1"><mxGraphModel dx="830" dy="735" grid="1" gridSize="10" guides="1" tooltips="1" connect="1" arrows="1" fold="1" page="1" pageScale="1" pageWidth="827" pageHeight="1169" math="0" shadow="0"><root><mxCell id="0"/><mxCell id="1" parent="0"/><mxCell id="2" value="TurnController" style="swimlane;fontStyle=3;align=center;verticalAlign=top;childLayout=stackLayout;horizontal=1;startSize=30;horizontalStack=0;resizeParent=1;resizeParentMax=0;resizeLast=0;collapsible=1;marginBottom=0;" parent="1" vertex="1"><mxGeometry x="320" y="110" width="200" height="116" as="geometry"/></mxCell><mxCell id="3" value="# disableControl: boolean" style="text;strokeColor=none;fillColor=none;align=left;verticalAlign=top;spacingLeft=4;spacingRight=4;overflow=hidden;rotatable=0;points=[[0,0.5],[1,0.5]];portConstraint=eastwest;" parent="2" vertex="1"><mxGeometry y="30" width="200" height="26" as="geometry"/></mxCell><mxCell id="4" value="" style="line;strokeWidth=1;fillColor=none;align=left;verticalAlign=middle;spacingTop=-1;spacingLeft=3;spacingRight=3;rotatable=0;labelPosition=right;points=[];portConstraint=eastwest;" parent="2" vertex="1"><mxGeometry y="56" width="200" height="8" as="geometry"/></mxCell><mxCell id="5" value="+ TurnController(SModel)" style="text;strokeColor=none;fillColor=none;align=left;verticalAlign=top;spacingLeft=4;spacingRight=4;overflow=hidden;rotatable=0;points=[[0,0.5],[1,0.5]];portConstraint=eastwest;" parent="2" vertex="1"><mxGeometry y="64" width="200" height="26" as="geometry"/></mxCell><mxCell id="14" value="+ handleModelEvent(ModelEvent)" style="text;strokeColor=none;fillColor=none;align=left;verticalAlign=top;spacingLeft=4;spacingRight=4;overflow=hidden;rotatable=0;points=[[0,0.5],[1,0.5]];portConstraint=eastwest;" parent="2" vertex="1"><mxGeometry y="90" width="200" height="26" as="geometry"/></mxCell><mxCell id="8" value="&lt;&lt;Interface&gt;&gt;&#10;ModelListener" style="swimlane;fontStyle=0;childLayout=stackLayout;horizontal=1;startSize=40;fillColor=none;horizontalStack=0;resizeParent=1;resizeParentMax=0;resizeLast=0;collapsible=1;marginBottom=0;" parent="1" vertex="1"><mxGeometry x="580" y="35" width="150" height="40" as="geometry"/></mxCell><mxCell id="10" value="" style="endArrow=block;dashed=1;endFill=0;endSize=12;html=1;rounded=0;" parent="1" source="2" target="8" edge="1"><mxGeometry width="160" relative="1" as="geometry"><mxPoint x="330" y="380" as="sourcePoint"/><mxPoint x="490" y="380" as="targetPoint"/></mxGeometry></mxCell><mxCell id="11" value="" style="endArrow=block;endSize=16;endFill=0;html=1;rounded=0;" parent="1" source="2" target="12" edge="1"><mxGeometry x="-0.5874" y="86" width="160" relative="1" as="geometry"><mxPoint x="340" y="380" as="sourcePoint"/><mxPoint x="240" y="80" as="targetPoint"/><mxPoint as="offset"/></mxGeometry></mxCell><mxCell id="12" value="MouseAdapter" style="swimlane;fontStyle=0;childLayout=stackLayout;horizontal=1;startSize=40;fillColor=none;horizontalStack=0;resizeParent=1;resizeParentMax=0;resizeLast=0;collapsible=1;marginBottom=0;" parent="1" vertex="1"><mxGeometry x="320" y="35" width="200" height="30" as="geometry"/></mxCell><mxCell id="15" value="BoardTileController" style="swimlane;fontStyle=1;align=center;verticalAlign=top;childLayout=stackLayout;horizontal=1;startSize=30;horizontalStack=0;resizeParent=1;resizeParentMax=0;resizeLast=0;collapsible=1;marginBottom=0;" parent="1" vertex="1"><mxGeometry x="550" y="400" width="210" height="194" as="geometry"/></mxCell><mxCell id="16" value="- listeners: List&lt;SControllerListener&gt;" style="text;strokeColor=none;fillColor=none;align=left;verticalAlign=top;spacingLeft=4;spacingRight=4;overflow=hidden;rotatable=0;points=[[0,0.5],[1,0.5]];portConstraint=eastwest;fontStyle=4" parent="15" vertex="1"><mxGeometry y="30" width="210" height="26" as="geometry"/></mxCell><mxCell id="35" value="- origin: Point" style="text;strokeColor=none;fillColor=none;align=left;verticalAlign=top;spacingLeft=4;spacingRight=4;overflow=hidden;rotatable=0;points=[[0,0.5],[1,0.5]];portConstraint=eastwest;fontStyle=4" parent="15" vertex="1"><mxGeometry y="56" width="210" height="26" as="geometry"/></mxCell><mxCell id="17" value="" style="line;strokeWidth=1;fillColor=none;align=left;verticalAlign=middle;spacingTop=-1;spacingLeft=3;spacingRight=3;rotatable=0;labelPosition=right;points=[];portConstraint=eastwest;" parent="15" vertex="1"><mxGeometry y="82" width="210" height="8" as="geometry"/></mxCell><mxCell id="18" value="+ BoardTileController(Point, SModel)" style="text;strokeColor=none;fillColor=none;align=left;verticalAlign=top;spacingLeft=4;spacingRight=4;overflow=hidden;rotatable=0;points=[[0,0.5],[1,0.5]];portConstraint=eastwest;" parent="15" vertex="1"><mxGeometry y="90" width="210" height="26" as="geometry"/></mxCell><mxCell id="19" value="+ mousePressed(MouseEvent)" style="text;strokeColor=none;fillColor=none;align=left;verticalAlign=top;spacingLeft=4;spacingRight=4;overflow=hidden;rotatable=0;points=[[0,0.5],[1,0.5]];portConstraint=eastwest;" parent="15" vertex="1"><mxGeometry y="116" width="210" height="26" as="geometry"/></mxCell><mxCell id="42" value="+ notifyControllerListeners()" style="text;strokeColor=none;fillColor=none;align=left;verticalAlign=top;spacingLeft=4;spacingRight=4;overflow=hidden;rotatable=0;points=[[0,0.5],[1,0.5]];portConstraint=eastwest;" parent="15" vertex="1"><mxGeometry y="142" width="210" height="26" as="geometry"/></mxCell><mxCell id="41" value="+ addControllerListener(SControllerListener)" style="text;strokeColor=none;fillColor=none;align=left;verticalAlign=top;spacingLeft=4;spacingRight=4;overflow=hidden;rotatable=0;points=[[0,0.5],[1,0.5]];portConstraint=eastwest;" parent="15" vertex="1"><mxGeometry y="168" width="210" height="26" as="geometry"/></mxCell><mxCell id="20" value="" style="endArrow=block;endSize=16;endFill=0;html=1;rounded=0;" parent="1" source="15" target="2" edge="1"><mxGeometry x="-0.5874" y="86" width="160" relative="1" as="geometry"><mxPoint x="320" y="120" as="sourcePoint"/><mxPoint x="320" y="70" as="targetPoint"/><mxPoint as="offset"/></mxGeometry></mxCell><mxCell id="23" value="&lt;&lt;Interface&gt;&gt;&#10;SController" style="swimlane;fontStyle=0;childLayout=stackLayout;horizontal=1;startSize=40;fillColor=none;horizontalStack=0;resizeParent=1;resizeParentMax=0;resizeLast=0;collapsible=1;marginBottom=0;" parent="1" vertex="1"><mxGeometry x="140" y="35" width="120" height="30" as="geometry"/></mxCell><mxCell id="26" value="" style="endArrow=block;dashed=1;endFill=0;endSize=12;html=1;rounded=0;" parent="1" source="2" target="23" edge="1"><mxGeometry width="160" relative="1" as="geometry"><mxPoint x="530" y="129.8367346938776" as="sourcePoint"/><mxPoint x="633.4745762711864" y="80" as="targetPoint"/></mxGeometry></mxCell><mxCell id="27" value="&lt;&lt;Interface&gt;&gt;&#10;MouseListener" style="swimlane;fontStyle=0;childLayout=stackLayout;horizontal=1;startSize=40;fillColor=none;horizontalStack=0;resizeParent=1;resizeParentMax=0;resizeLast=0;collapsible=1;marginBottom=0;" parent="1" vertex="1"><mxGeometry x="345" y="320" width="150" height="40" as="geometry"/></mxCell><mxCell id="28" value="HandTileController" style="swimlane;fontStyle=1;align=center;verticalAlign=top;childLayout=stackLayout;horizontal=1;startSize=30;horizontalStack=0;resizeParent=1;resizeParentMax=0;resizeLast=0;collapsible=1;marginBottom=0;" parent="1" vertex="1"><mxGeometry x="95" y="400" width="210" height="194" as="geometry"/></mxCell><mxCell id="29" value="- listeners: List&lt;SControllerListener&gt;&#10;" style="text;strokeColor=none;fillColor=none;align=left;verticalAlign=top;spacingLeft=4;spacingRight=4;overflow=hidden;rotatable=0;points=[[0,0.5],[1,0.5]];portConstraint=eastwest;fontStyle=4" parent="28" vertex="1"><mxGeometry y="30" width="210" height="26" as="geometry"/></mxCell><mxCell id="34" value="- tile: Tile" style="text;strokeColor=none;fillColor=none;align=left;verticalAlign=top;spacingLeft=4;spacingRight=4;overflow=hidden;rotatable=0;points=[[0,0.5],[1,0.5]];portConstraint=eastwest;fontStyle=4" parent="28" vertex="1"><mxGeometry y="56" width="210" height="26" as="geometry"/></mxCell><mxCell id="30" value="" style="line;strokeWidth=1;fillColor=none;align=left;verticalAlign=middle;spacingTop=-1;spacingLeft=3;spacingRight=3;rotatable=0;labelPosition=right;points=[];portConstraint=eastwest;" parent="28" vertex="1"><mxGeometry y="82" width="210" height="8" as="geometry"/></mxCell><mxCell id="31" value="+ HandTileController(Tile, SModel)" style="text;strokeColor=none;fillColor=none;align=left;verticalAlign=top;spacingLeft=4;spacingRight=4;overflow=hidden;rotatable=0;points=[[0,0.5],[1,0.5]];portConstraint=eastwest;" parent="28" vertex="1"><mxGeometry y="90" width="210" height="26" as="geometry"/></mxCell><mxCell id="45" value="+ mousePressed(MouseEvent)" style="text;strokeColor=none;fillColor=none;align=left;verticalAlign=top;spacingLeft=4;spacingRight=4;overflow=hidden;rotatable=0;points=[[0,0.5],[1,0.5]];portConstraint=eastwest;" parent="28" vertex="1"><mxGeometry y="116" width="210" height="26" as="geometry"/></mxCell><mxCell id="43" value="+ notifyControllerListeners()" style="text;strokeColor=none;fillColor=none;align=left;verticalAlign=top;spacingLeft=4;spacingRight=4;overflow=hidden;rotatable=0;points=[[0,0.5],[1,0.5]];portConstraint=eastwest;" parent="28" vertex="1"><mxGeometry y="142" width="210" height="26" as="geometry"/></mxCell><mxCell id="44" value="+ addControllerListener(SControllerListener)" style="text;strokeColor=none;fillColor=none;align=left;verticalAlign=top;spacingLeft=4;spacingRight=4;overflow=hidden;rotatable=0;points=[[0,0.5],[1,0.5]];portConstraint=eastwest;" parent="28" vertex="1"><mxGeometry y="168" width="210" height="26" as="geometry"/></mxCell><mxCell id="36" value="" style="endArrow=block;endSize=16;endFill=0;html=1;rounded=0;" parent="1" source="28" target="2" edge="1"><mxGeometry x="-0.5874" y="86" width="160" relative="1" as="geometry"><mxPoint x="632.9042904290429" y="410" as="sourcePoint"/><mxPoint x="480.7260726072607" y="236" as="targetPoint"/><mxPoint as="offset"/></mxGeometry></mxCell><mxCell id="37" value="" style="endArrow=block;dashed=1;endFill=0;endSize=12;html=1;rounded=0;" parent="1" source="15" target="27" edge="1"><mxGeometry width="160" relative="1" as="geometry"><mxPoint x="530" y="129.91489361702133" as="sourcePoint"/><mxPoint x="623.4070796460178" y="85" as="targetPoint"/></mxGeometry></mxCell><mxCell id="38" value="" style="endArrow=block;dashed=1;endFill=0;endSize=12;html=1;rounded=0;" parent="1" source="28" target="27" edge="1"><mxGeometry width="160" relative="1" as="geometry"><mxPoint x="540" y="139.91489361702133" as="sourcePoint"/><mxPoint x="633.4070796460178" y="95" as="targetPoint"/></mxGeometry></mxCell></root></mxGraphModel></diagram></mxfile>